<svg width="333" height="46" viewBox="0 0 333 46" fill="none" xmlns="http://www.w3.org/2000/svg">
<path fill-rule="evenodd" clip-rule="evenodd" d="M0 2.48462H29.2144V35.9527H16.156L12.8782 32.675V25.6159H16.7697C18.7215 25.6159 20.4709 25.2827 22.0181 24.6163C23.5652 23.9498 24.7909 22.9323 25.6954 21.5637C26.5999 20.195 27.0521 18.4753 27.0521 16.4046C27.0521 14.1434 26.6237 12.3642 25.7668 11.067C24.9099 9.76992 23.7317 8.8415 22.2323 8.2822C20.7328 7.72289 18.9953 7.44316 17.0198 7.44316H6.41602V26.2128L0 19.7968L0 2.48462ZM12.8782 19.8679H16.7697C18.0075 19.8679 18.9714 19.5703 19.6617 18.9752C20.352 18.3801 20.6971 17.5352 20.6971 16.4404C20.6971 15.4407 20.3936 14.6909 19.7867 14.191C19.1797 13.6913 18.1622 13.4413 16.7341 13.4413H12.8782V19.8679Z" fill="#FF9100"/>
<path d="M40.5014 35.2499C38.5258 35.2499 36.8478 34.8572 35.4673 34.0717C34.0868 33.2862 33.0276 32.1794 32.2897 30.7513C31.5519 29.2994 31.183 27.6095 31.183 25.6815C31.183 23.7298 31.5638 22.0279 32.3254 20.576C33.0871 19.1003 34.1582 17.9459 35.5387 17.1128C36.943 16.2798 38.5972 15.8632 40.5014 15.8632C41.9057 15.8632 43.1434 16.1012 44.2145 16.5773C45.3094 17.0533 46.2258 17.7198 46.9636 18.5766C47.7253 19.4097 48.2965 20.3975 48.6774 21.54C49.0582 22.6587 49.2367 23.8845 49.2129 25.2174C49.1891 25.5506 49.1653 25.8719 49.1415 26.1814C49.1415 26.4908 49.1058 26.8002 49.0344 27.1096H36.1457C36.2171 27.8237 36.4194 28.4782 36.7526 29.0733C37.0858 29.6683 37.55 30.1444 38.145 30.5014C38.7639 30.8346 39.5255 31.0012 40.43 31.0012C41.025 31.0012 41.5725 30.9417 42.0723 30.8227C42.5722 30.6799 43.0006 30.4657 43.3576 30.1801C43.7147 29.8945 43.9646 29.5612 44.1074 29.1804H49.0344C48.725 30.5847 48.1418 31.7391 47.2849 32.6436C46.4519 33.5481 45.4403 34.2145 44.2502 34.6429C43.0601 35.0476 41.8105 35.2499 40.5014 35.2499ZM36.2528 23.6108H44.4287C44.4049 22.9681 44.2383 22.3731 43.9289 21.8256C43.6433 21.2544 43.2029 20.8021 42.6079 20.4689C42.0366 20.1119 41.2988 19.9334 40.3943 19.9334C39.4898 19.9334 38.7282 20.1119 38.1093 20.4689C37.5143 20.8259 37.062 21.2901 36.7526 21.8613C36.467 22.4088 36.3004 22.9919 36.2528 23.6108ZM52.4331 35V16.1846H57.4315V23.3965H60.2878L64.8934 16.1846H70.5345L64.6435 25.0389L70.5702 35H64.822L60.5734 27.8594H57.4315V35H52.4331ZM71.2946 35.0357V30.4657C71.842 30.4657 72.2943 30.3348 72.6513 30.073C73.0321 29.7873 73.3534 29.4184 73.6153 28.9662C73.9009 28.4425 74.1032 27.7999 74.2222 27.0382C74.3412 26.2766 74.4245 25.5268 74.4721 24.7889C74.5435 23.7655 74.5911 22.7063 74.6149 21.6114C74.6625 20.5165 74.6864 19.493 74.6864 18.5409C74.7102 17.5889 74.7221 16.8034 74.7221 16.1846H89.3959V35H84.4332V20.6474H79.292C79.292 21.4091 79.2801 22.254 79.2563 23.1823C79.2325 24.0868 79.1849 25.0032 79.1135 25.9314C79.0421 26.8359 78.9469 27.7047 78.8279 28.5377C78.6851 29.466 78.4709 30.3586 78.1852 31.2155C77.9234 32.0485 77.5188 32.7745 76.9713 33.3933C76.4001 34.036 75.6741 34.4763 74.7935 34.7143C73.9128 34.9286 72.7465 35.0357 71.2946 35.0357ZM99.1141 35.2499C98.3048 35.2499 97.5194 35.1428 96.7577 34.9286C95.996 34.6905 95.3058 34.3335 94.6869 33.8575C94.0919 33.3814 93.6158 32.7864 93.2588 32.0723C92.9018 31.3583 92.7233 30.5252 92.7233 29.5731C92.7233 28.2878 92.9851 27.2643 93.5087 26.5027C94.0324 25.7172 94.7345 25.1222 95.6152 24.7175C96.4959 24.3129 97.5075 24.0392 98.65 23.8964C99.8162 23.7536 101.018 23.6822 102.256 23.6822H104.969C104.969 22.9919 104.838 22.385 104.577 21.8613C104.339 21.3139 103.97 20.8973 103.47 20.6117C102.97 20.3023 102.327 20.1476 101.542 20.1476C101.042 20.1476 100.554 20.219 100.078 20.3618C99.6258 20.4808 99.245 20.6593 98.9356 20.8973C98.6262 21.1354 98.4238 21.4448 98.3286 21.8256H93.2588C93.4016 20.7783 93.7349 19.8858 94.2585 19.1479C94.7821 18.3862 95.4367 17.7674 96.2222 17.2913C97.0076 16.8153 97.8645 16.4702 98.7928 16.256C99.7448 16.0179 100.721 15.8989 101.72 15.8989C103.553 15.8989 105.053 16.2441 106.219 16.9343C107.409 17.6246 108.29 18.6361 108.861 19.9691C109.456 21.302 109.754 22.9324 109.754 24.8604V35H105.255L105.184 32.7864C104.636 33.429 104.029 33.9408 103.363 34.3216C102.72 34.6786 102.042 34.9167 101.328 35.0357C100.614 35.1785 99.8758 35.2499 99.1141 35.2499ZM100.471 31.2869C101.328 31.2869 102.101 31.1203 102.791 30.787C103.482 30.43 104.017 29.9659 104.398 29.3946C104.803 28.7996 105.005 28.145 105.005 27.431V27.0382H101.578C101.054 27.0382 100.554 27.062 100.078 27.1096C99.6258 27.1572 99.2093 27.2524 98.8285 27.3953C98.4714 27.5143 98.1858 27.7166 97.9716 28.0022C97.7812 28.264 97.686 28.6211 97.686 29.0733C97.686 29.5731 97.805 29.9897 98.043 30.3229C98.3048 30.6561 98.65 30.906 99.0784 31.0727C99.5068 31.2155 99.971 31.2869 100.471 31.2869ZM113.658 35V16.1846H119.62L124.762 24.3248L129.867 16.1846H135.722V35H130.76V22.8253L125.44 31.1798H124.012L118.656 22.7896V35H113.658ZM145.381 35.2499C144.572 35.2499 143.787 35.1428 143.025 34.9286C142.263 34.6905 141.573 34.3335 140.954 33.8575C140.359 33.3814 139.883 32.7864 139.526 32.0723C139.169 31.3583 138.991 30.5252 138.991 29.5731C138.991 28.2878 139.252 27.2643 139.776 26.5027C140.3 25.7172 141.002 25.1222 141.883 24.7175C142.763 24.3129 143.775 24.0392 144.917 23.8964C146.084 23.7536 147.286 23.6822 148.523 23.6822H151.237C151.237 22.9919 151.106 22.385 150.844 21.8613C150.606 21.3139 150.237 20.8973 149.737 20.6117C149.237 20.3023 148.595 20.1476 147.809 20.1476C147.309 20.1476 146.821 20.219 146.345 20.3618C145.893 20.4808 145.512 20.6593 145.203 20.8973C144.893 21.1354 144.691 21.4448 144.596 21.8256H139.526C139.669 20.7783 140.002 19.8858 140.526 19.1479C141.049 18.3862 141.704 17.7674 142.489 17.2913C143.275 16.8153 144.132 16.4702 145.06 16.256C146.012 16.0179 146.988 15.8989 147.988 15.8989C149.82 15.8989 151.32 16.2441 152.486 16.9343C153.676 17.6246 154.557 18.6361 155.128 19.9691C155.723 21.302 156.021 22.9324 156.021 24.8604V35H151.522L151.451 32.7864C150.903 33.429 150.296 33.9408 149.63 34.3216C148.987 34.6786 148.309 34.9167 147.595 35.0357C146.881 35.1785 146.143 35.2499 145.381 35.2499ZM146.738 31.2869C147.595 31.2869 148.369 31.1203 149.059 30.787C149.749 30.43 150.285 29.9659 150.665 29.3946C151.07 28.7996 151.272 28.145 151.272 27.431V27.0382H147.845C147.321 27.0382 146.821 27.062 146.345 27.1096C145.893 27.1572 145.477 27.2524 145.096 27.3953C144.739 27.5143 144.453 27.7166 144.239 28.0022C144.048 28.264 143.953 28.6211 143.953 29.0733C143.953 29.5731 144.072 29.9897 144.31 30.3229C144.572 30.6561 144.917 30.906 145.346 31.0727C145.774 31.2155 146.238 31.2869 146.738 31.2869Z" fill="white"/>
<rect x="165.933" y="5.5" width="0.7" height="35" fill="white"/>
<path d="M174.878 18V7.395H176.468V12.06H181.778V7.395H183.368V18H181.778V13.515H176.468V18H174.878ZM184.5 18L188.505 7.395H190.56L194.55 18H192.84L192.06 15.87H186.99L186.21 18H184.5ZM187.515 14.445H191.535L189.525 8.91L187.515 14.445ZM195.669 18V7.395H199.494C200.284 7.395 200.964 7.52 201.534 7.77C202.114 8.02 202.559 8.41 202.869 8.94C203.179 9.46 203.334 10.135 203.334 10.965C203.334 11.765 203.154 12.435 202.794 12.975C202.444 13.515 201.964 13.925 201.354 14.205C200.744 14.475 200.049 14.61 199.269 14.61H197.259V18H195.669ZM197.259 13.17H199.209C199.969 13.17 200.579 12.995 201.039 12.645C201.499 12.285 201.729 11.71 201.729 10.92C201.729 10.23 201.539 9.715 201.159 9.375C200.779 9.025 200.204 8.85 199.434 8.85H197.259V13.17ZM205.445 18.015V16.515C205.865 16.515 206.225 16.485 206.525 16.425C206.835 16.355 207.11 16.225 207.35 16.035C207.59 15.845 207.815 15.56 208.025 15.18L203.9 7.395H205.76L208.895 13.59L211.4 7.395H213.11L210.995 12.33C210.855 12.67 210.685 13.075 210.485 13.545C210.285 14.005 210.065 14.48 209.825 14.97C209.595 15.45 209.345 15.895 209.075 16.305C208.815 16.715 208.54 17.035 208.25 17.265C207.89 17.565 207.48 17.765 207.02 17.865C206.57 17.965 206.045 18.015 205.445 18.015ZM213.035 18L215.93 12.6L213.035 7.395H214.805L217.265 12.06H218.78V7.395H220.37V12.06H221.915L224.39 7.395H226.13L223.22 12.6L226.145 18H224.285L221.93 13.5H220.37V18H218.78V13.5H217.235L214.865 18H213.035ZM227.352 18V7.395H228.942V12.06H234.252V7.395H235.842V18H234.252V13.515H228.942V18H227.352ZM236.973 18L240.978 7.395H243.033L247.023 18H245.313L244.533 15.87H239.463L238.683 18H236.973ZM239.988 14.445H244.008L241.998 8.91L239.988 14.445ZM247.722 18L250.122 13.86C249.432 13.68 248.867 13.335 248.427 12.825C247.997 12.315 247.782 11.63 247.782 10.77C247.782 10.15 247.877 9.63 248.067 9.21C248.267 8.78 248.542 8.43 248.892 8.16C249.242 7.89 249.662 7.695 250.152 7.575C250.642 7.455 251.177 7.395 251.757 7.395H255.762V18H254.172V14.145H251.697L249.537 18H247.722ZM252.027 12.72H254.172V8.85H251.697C251.177 8.85 250.747 8.92 250.407 9.06C250.067 9.19 249.807 9.395 249.627 9.675C249.457 9.955 249.372 10.315 249.372 10.755C249.372 11.285 249.497 11.695 249.747 11.985C249.997 12.265 250.322 12.46 250.722 12.57C251.132 12.67 251.567 12.72 252.027 12.72ZM261.916 18V7.395H265.741C266.531 7.395 267.211 7.52 267.781 7.77C268.361 8.02 268.806 8.41 269.116 8.94C269.426 9.46 269.581 10.135 269.581 10.965C269.581 11.765 269.401 12.435 269.041 12.975C268.691 13.515 268.211 13.925 267.601 14.205C266.991 14.475 266.296 14.61 265.516 14.61H263.506V18H261.916ZM263.506 13.17H265.456C266.216 13.17 266.826 12.995 267.286 12.645C267.746 12.285 267.976 11.71 267.976 10.92C267.976 10.23 267.786 9.715 267.406 9.375C267.026 9.025 266.451 8.85 265.681 8.85H263.506V13.17ZM271.198 18V7.395H278.503V8.85H272.788V12.03H277.843V13.47H272.788V16.545H278.503V18H271.198ZM280.187 18V7.395H281.777V12.12H283.322L286.547 7.395H288.362L284.687 12.615L288.377 18H286.517L283.427 13.575H281.777V18H280.187ZM288.521 18.09V16.545C288.801 16.545 289.036 16.49 289.226 16.38C289.426 16.26 289.586 16.1 289.706 15.9C289.836 15.69 289.926 15.455 289.976 15.195C290.046 14.895 290.096 14.585 290.126 14.265C290.156 13.945 290.176 13.625 290.186 13.305C290.206 12.985 290.216 12.685 290.216 12.405L290.291 7.395H297.521V18H295.931V8.85H291.836L291.776 11.895C291.756 12.635 291.736 13.345 291.716 14.025C291.696 14.695 291.626 15.305 291.506 15.855C291.396 16.395 291.186 16.845 290.876 17.205C290.626 17.495 290.311 17.71 289.931 17.85C289.561 17.99 289.091 18.07 288.521 18.09ZM298.65 18L302.655 7.395H304.71L308.7 18H306.99L306.21 15.87H301.14L300.36 18H298.65ZM301.665 14.445H305.685L303.675 8.91L301.665 14.445ZM309.819 18V7.395H312.069L315.174 12.99L318.249 7.395H320.439V18H318.849V9.225L315.489 15.375H314.799L311.409 9.225V18H309.819ZM321.564 18L325.569 7.395H327.624L331.614 18H329.904L329.124 15.87H324.054L323.274 18H321.564ZM324.579 14.445H328.599L326.589 8.91L324.579 14.445Z" fill="#FF9100"/>
<path d="M174.878 37V26.395H176.468V34.435L181.943 26.395H183.473V37H181.898V29.035L176.393 37H174.878ZM189.633 37V26.395H198.138V37H196.548V27.835H191.223V37H189.633ZM204.894 37.12C203.804 37.12 202.879 36.89 202.119 36.43C201.369 35.96 200.799 35.315 200.409 34.495C200.019 33.675 199.824 32.745 199.824 31.705C199.824 30.655 200.019 29.72 200.409 28.9C200.799 28.08 201.374 27.44 202.134 26.98C202.894 26.51 203.819 26.275 204.909 26.275C206.009 26.275 206.934 26.505 207.684 26.965C208.434 27.425 209.004 28.065 209.394 28.885C209.784 29.705 209.979 30.64 209.979 31.69C209.979 32.73 209.784 33.66 209.394 34.48C209.004 35.3 208.429 35.945 207.669 36.415C206.919 36.885 205.994 37.12 204.894 37.12ZM204.909 35.665C205.709 35.665 206.364 35.48 206.874 35.11C207.384 34.74 207.759 34.255 207.999 33.655C208.239 33.055 208.359 32.405 208.359 31.705C208.359 31.175 208.289 30.67 208.149 30.19C208.019 29.71 207.814 29.285 207.534 28.915C207.254 28.545 206.894 28.255 206.454 28.045C206.014 27.835 205.499 27.73 204.909 27.73C204.119 27.73 203.464 27.915 202.944 28.285C202.434 28.655 202.054 29.14 201.804 29.74C201.554 30.34 201.429 30.995 201.429 31.705C201.429 32.405 201.549 33.055 201.789 33.655C202.039 34.255 202.419 34.74 202.929 35.11C203.449 35.48 204.109 35.665 204.909 35.665ZM210.384 37.09V35.545C210.664 35.545 210.899 35.49 211.089 35.38C211.289 35.26 211.449 35.1 211.569 34.9C211.699 34.69 211.789 34.455 211.839 34.195C211.909 33.895 211.959 33.585 211.989 33.265C212.019 32.945 212.039 32.625 212.049 32.305C212.069 31.985 212.079 31.685 212.079 31.405L212.154 26.395H219.384V37H217.794V27.85H213.699L213.639 30.895C213.619 31.635 213.599 32.345 213.579 33.025C213.559 33.695 213.489 34.305 213.369 34.855C213.259 35.395 213.049 35.845 212.739 36.205C212.489 36.495 212.174 36.71 211.794 36.85C211.424 36.99 210.954 37.07 210.384 37.09ZM221.654 37V26.395H223.244V34.435L228.719 26.395H230.249V37H228.674V29.035L223.169 37H221.654ZM232.518 37V26.395H239.508V27.85H234.108V37H232.518ZM240.92 37V26.395H244.745C245.535 26.395 246.215 26.52 246.785 26.77C247.365 27.02 247.81 27.41 248.12 27.94C248.43 28.46 248.585 29.135 248.585 29.965C248.585 30.765 248.405 31.435 248.045 31.975C247.695 32.515 247.215 32.925 246.605 33.205C245.995 33.475 245.3 33.61 244.52 33.61H242.51V37H240.92ZM242.51 32.17H244.46C245.22 32.17 245.83 31.995 246.29 31.645C246.75 31.285 246.98 30.71 246.98 29.92C246.98 29.23 246.79 28.715 246.41 28.375C246.03 28.025 245.455 27.85 244.685 27.85H242.51V32.17ZM248.169 37L252.174 26.395H254.229L258.219 37H256.509L255.729 34.87H250.659L249.879 37H248.169ZM251.184 33.445H255.204L253.194 27.91L251.184 33.445ZM263.438 37.165V35.455H262.448C261.628 35.445 260.923 35.265 260.333 34.915C259.743 34.565 259.293 34.085 258.983 33.475C258.683 32.855 258.533 32.14 258.533 31.33C258.543 30.48 258.723 29.76 259.073 29.17C259.423 28.57 259.903 28.115 260.513 27.805C261.133 27.485 261.833 27.325 262.613 27.325H263.438V25.84H265.028V27.325H265.808C266.598 27.325 267.303 27.485 267.923 27.805C268.543 28.115 269.028 28.57 269.378 29.17C269.738 29.76 269.923 30.475 269.933 31.315C269.943 32.135 269.788 32.855 269.468 33.475C269.148 34.085 268.688 34.565 268.088 34.915C267.498 35.265 266.783 35.445 265.943 35.455H265.028V37.165H263.438ZM262.673 34.09H263.438V28.69H262.718C262.178 28.69 261.713 28.805 261.323 29.035C260.933 29.255 260.633 29.56 260.423 29.95C260.213 30.34 260.108 30.79 260.108 31.3C260.108 31.83 260.198 32.31 260.378 32.74C260.558 33.16 260.833 33.49 261.203 33.73C261.583 33.97 262.073 34.09 262.673 34.09ZM265.028 34.09H265.793C266.393 34.09 266.878 33.97 267.248 33.73C267.628 33.49 267.903 33.16 268.073 32.74C268.253 32.31 268.343 31.83 268.343 31.3C268.343 30.79 268.238 30.34 268.028 29.95C267.828 29.56 267.533 29.255 267.143 29.035C266.753 28.805 266.288 28.69 265.748 28.69H265.028V34.09ZM271.608 37V26.395H273.198V34.435L278.673 26.395H280.203V37H278.628V29.035L273.123 37H271.608ZM282.052 37L284.452 32.86C283.762 32.68 283.197 32.335 282.757 31.825C282.327 31.315 282.112 30.63 282.112 29.77C282.112 29.15 282.207 28.63 282.397 28.21C282.597 27.78 282.872 27.43 283.222 27.16C283.572 26.89 283.992 26.695 284.482 26.575C284.972 26.455 285.507 26.395 286.087 26.395H290.092V37H288.502V33.145H286.027L283.867 37H282.052ZM286.357 31.72H288.502V27.85H286.027C285.507 27.85 285.077 27.92 284.737 28.06C284.397 28.19 284.137 28.395 283.957 28.675C283.787 28.955 283.702 29.315 283.702 29.755C283.702 30.285 283.827 30.695 284.077 30.985C284.327 31.265 284.652 31.46 285.052 31.57C285.462 31.67 285.897 31.72 286.357 31.72Z" fill="white"/>
</svg>
